<svg xmlns="http://www.w3.org/2000/svg" viewBox="0 0 6.180078136593933 2.721289429750127" height="50" fill="#0958d9">
  <g transform="matrix(1,0,0,1,2.2454646225178743,0.3359762648750637)">
    <rect width="6.180078136593933" height="6.180078136593933" x="-2.2454646225178743" y="-2.065370618296966"></rect>
    <g>
      <path d="M0.066267 0.366558 Q0.103878 0.288948 0.169548 0.247158 Q0.235218 0.205368 0.315216 0.205368 Q0.379692 0.205368 0.430437 0.232233 Q0.481182 0.259098 0.509838 0.305664 L0.509838 0 L0.745056 0 L0.745056 0.88356 L0.509838 0.88356 L0.509838 0.790428 Q0.482376 0.836994 0.432228 0.864456 Q0.38208 0.891918 0.314022 0.891918 Q0.234024 0.891918 0.168951 0.850128 Q0.103878 0.808338 0.066267 0.730131 Q0.028656 0.651924 0.028656 0.548046 Q0.028656 0.444168 0.066267 0.366558 M0.475809 0.446556 Q0.440586 0.409542 0.389244 0.409542 Q0.336708 0.409542 0.302082 0.445959 Q0.267456 0.482376 0.267456 0.548046 Q0.267456 0.612522 0.302082 0.650133 Q0.336708 0.687744 0.389244 0.687744 Q0.440586 0.687744 0.475809 0.65073 Q0.511032 0.613716 0.511032 0.548046 Q0.511032 0.48357 0.475809 0.446556 M1.529863 0.284769 Q1.597324 0.361782 1.597324 0.493122 L1.597324 0.88356 L1.3633 0.88356 L1.3633 0.524166 Q1.3633 0.466854 1.33345 0.434019 Q1.3036 0.401184 1.253452 0.401184 Q1.200916 0.401184 1.171066 0.434019 Q1.141216 0.466854 1.141216 0.524166 L1.141216 0.88356 L0.907192 0.88356 L0.907192 0 L1.141216 0 L1.141216 0.309246 Q1.17226 0.263874 1.225393 0.235815 Q1.278526 0.207756 1.347778 0.207756 Q1.462402 0.207756 1.529863 0.284769 M1.754066 0.366558 Q1.791677 0.288948 1.85675 0.247158 Q1.921823 0.205368 2.001821 0.205368 Q2.071073 0.205368 2.121221 0.23283 Q2.171369 0.260292 2.198831 0.306858 L2.198831 0.213726 L2.432855 0.213726 L2.432855 0.88356 L2.198831 0.88356 L2.198831 0.790428 Q2.171369 0.836994 2.120624 0.864456 Q2.069879 0.891918 2.001821 0.891918 Q1.921823 0.891918 1.85675 0.850128 Q1.791677 0.808338 1.754066 0.730131 Q1.716455 0.651924 1.716455 0.548046 Q1.716455 0.444168 1.754066 0.366558 M2.163608 0.446556 Q2.128385 0.409542 2.077043 0.409542 Q2.024507 0.409542 1.989881 0.445959 Q1.955255 0.482376 1.955255 0.548046 Q1.955255 0.612522 1.989881 0.650133 Q2.024507 0.687744 2.077043 0.687744 Q2.128385 0.687744 2.163608 0.65073 Q2.198831 0.613716 2.198831 0.548046 Q2.198831 0.48357 2.163608 0.446556 M3.217065 0.284769 Q3.285123 0.361782 3.285123 0.493122 L3.285123 0.88356 L3.051099 0.88356 L3.051099 0.524166 Q3.051099 0.466854 3.021249 0.434019 Q2.991399 0.401184 2.941251 0.401184 Q2.888715 0.401184 2.858865 0.434019 Q2.829015 0.466854 2.829015 0.524166 L2.829015 0.88356 L2.594991 0.88356 L2.594991 0.213726 L2.829015 0.213726 L2.829015 0.309246 Q2.860059 0.263874 2.912595 0.235815 Q2.965131 0.207756 3.033189 0.207756 Q3.149007 0.207756 3.217065 0.284769" fill="#0958d9" fill-rule="nonzero"></path>
      <path d="M1.357554 1.278295 Q1.450201 1.370943 1.450201 1.54705 L1.450201 2.037086 L1.344537 2.037086 L1.344537 1.559301 Q1.344537 1.423009 1.278689 1.351035 Q1.21284 1.279061 1.099519 1.279061 Q0.981604 1.279061 0.911161 1.357161 Q0.840719 1.43526 0.840719 1.583802 L0.840719 2.037086 L0.735055 2.037086 L0.735055 1.559301 Q0.735055 1.423009 0.669206 1.351035 Q0.603357 1.279061 0.488505 1.279061 Q0.37059 1.279061 0.300147 1.357161 Q0.229705 1.43526 0.229705 1.583802 L0.229705 2.037086 L0.122509 2.037086 L0.122509 1.200961 L0.229705 1.200961 L0.229705 1.34491 Q0.26952 1.26681 0.343025 1.226229 Q0.416531 1.185648 0.506881 1.185648 Q0.615608 1.185648 0.697536 1.237714 Q0.779464 1.289781 0.816217 1.390851 Q0.849907 1.291312 0.931835 1.23848 Q1.013763 1.185648 1.117895 1.185648 Q1.264906 1.185648 1.357554 1.278295 M1.705132 1.391616 Q1.756432 1.294375 1.847548 1.241543 Q1.938664 1.188711 2.053517 1.188711 Q2.172963 1.188711 2.259485 1.24384 Q2.346007 1.298969 2.384291 1.384725 L2.384291 1.200961 L2.491487 1.200961 L2.491487 2.037086 L2.384291 2.037086 L2.384291 1.851791 Q2.344476 1.937547 2.257954 1.993442 Q2.171432 2.049337 2.051985 2.049337 Q1.938664 2.049337 1.847548 1.995739 Q1.756432 1.942141 1.705132 1.844134 Q1.653831 1.746127 1.653831 1.617492 Q1.653831 1.488858 1.705132 1.391616 M2.342944 1.441386 Q2.301598 1.364817 2.230389 1.323471 Q2.159181 1.282124 2.073424 1.282124 Q1.984605 1.282124 1.914163 1.321939 Q1.84372 1.361755 1.803139 1.437557 Q1.762558 1.51336 1.762558 1.617492 Q1.762558 1.720094 1.803139 1.797428 Q1.84372 1.874761 1.914163 1.915343 Q1.984605 1.955924 2.073424 1.955924 Q2.159181 1.955924 2.230389 1.914577 Q2.301598 1.87323 2.342944 1.796662 Q2.384291 1.720094 2.384291 1.619024 Q2.384291 1.517954 2.342944 1.441386 M3.388847 1.278295 Q3.483792 1.370943 3.483792 1.54705 L3.483792 2.037086 L3.378128 2.037086 L3.378128 1.559301 Q3.378128 1.423009 3.309982 1.351035 Q3.241836 1.279061 3.123921 1.279061 Q3.002944 1.279061 2.930969 1.355629 Q2.858995 1.432197 2.858995 1.58074 L2.858995 2.037086 L2.7518 2.037086 L2.7518 1.200961 L2.858995 1.200961 L2.858995 1.343378 Q2.898811 1.26681 2.973848 1.226229 Q3.048884 1.185648 3.143829 1.185648 Q3.293903 1.185648 3.388847 1.278295" fill="#fff" fill-rule="nonzero"></path>
      <g clip-path="url(&quot;#SvgjsClipPath1002&quot;)">
        <g clip-path="url(&quot;#SvgjsClipPath10002aea6cf1-d103-458e-a046-bee9fa2a99a9&quot;)">
          <path d="M-0.402046 0.094426 L-0.860388 0.25548 L-0.683788 0.371123 L-1.017351 0.830556 L-1.337004 0.61359 L-1.909488 1.198348 L-1.81812 1.287398 L-1.328822 0.761143 L-0.996759 0.982473 L-0.59051 0.440672 L-0.430138 0.563133 Z M-0.672196 1.94266 L-0.4 1.94266 L-0.4 0.806145 L-0.672196 0.806145 Z M-1.446782 1.94266 L-1.192723 1.94266 L-1.192723 1.191393 L-1.446782 1.191393 Z M-1.060717 1.94266 L-0.803521 1.94266 L-0.803521 1.297899 L-1.060717 1.297899 Z M-1.820302 1.94266 L-1.569107 1.94266 L-1.569107 1.464135 L-1.820302 1.464135 Z" fill="#0958d9" transform="matrix(1,0,0,1,0,0)" fill-rule="nonzero"></path>
        </g>
      </g>
    </g>
  </g>
</svg>
